# xmcd
#
# Track frame offsets:
#	150
#	13550
#	31640
#	40712
#	54887
#	70437
#	86650
#	107075
#	125087
#	142050
#	160637
#	175162
#	187712
#	204412
#
# Disc length: 2895 seconds
#
# Revision: 1
# Processed by: cddbd v1.4PL0 Copyright (c) Steve Scherf et al.
# Submitted via: audiograbber 1.81.03
#
DISCID=af0b4d0e
DTITLE=James Harman Band and Buddies - Mo' Na'kins, Please
DYEAR=2000
DGENRE=Blues
TTITLE0=Mo' Na'kins, Please! #2
TTITLE1=Annalee
TTITLE2=Too Much Family
TTITLE3=Icepick's Pawnshop Blues
TTITLE4=Icepick Boogie
TTITLE5=(Feel Lilke) Messin' Up
TTITLE6=Chumpman Blues
TTITLE7=Shim Sham Shimmy
TTITLE8=Don't You Lie To Me
TTITLE9=The Falcon's Nest
TTITLE10=Dirty Work At The Crossroads
TTITLE11=The Goat
TTITLE12=Jake-Head Boogie
TTITLE13=Mo' Na'kins, Please! #1
EXTD=
EXTT0=
EXTT1=
EXTT2=
EXTT3=
EXTT4=
EXTT5=
EXTT6=
EXTT7=
EXTT8=
EXTT9=
EXTT10=
EXTT11=
EXTT12=
EXTT13=
PLAYORDER=
